<svg width="18" height="24" viewBox="0 0 18 24" fill="none" xmlns="http://www.w3.org/2000/svg">
    <path d="M1 3V22.5C1 22.7 1.063 22.895 1.177 23.052C1.291 23.209 1.451 23.32 1.631 23.371C1.811 23.422 2.001 23.41 2.173 23.337L9 19.5L15.827 23.337C15.999 23.41 16.189 23.422 16.369 23.371C16.549 23.32 16.709 23.209 16.823 23.052C16.937 22.895 17 22.7 17 22.5V3C17 2.33696 16.7366 1.70107 16.2678 1.23223C15.7989 0.763392 15.163 0.5 14.5 0.5H3.5C2.83696 0.5 2.20107 0.763392 1.73223 1.23223C1.26339 1.70107 1 2.33696 1 3Z" fill="#EEEEEE"/>
    <path d="M5 11L8 14L13 8" stroke="black" stroke-width="1.5" stroke-linecap="round" stroke-linejoin="round"/>
</svg>
