<svg width="14" height="14" viewBox="0 0 14 14" fill="none" xmlns="http://www.w3.org/2000/svg">
    <g clip-path="url(#clip0_1222_38851)">
        <path d="M12.5 6.5H1.5C0.947715 6.5 0.5 6.94772 0.5 7.5V12.5C0.5 13.0523 0.947715 13.5 1.5 13.5H12.5C13.0523 13.5 13.5 13.0523 13.5 12.5V7.5C13.5 6.94772 13.0523 6.5 12.5 6.5Z" stroke="#67686D" stroke-linecap="round" stroke-linejoin="round"/>
        <path d="M3.5 6.5C4.60457 6.5 5.5 5.60457 5.5 4.5C5.5 3.39543 4.60457 2.5 3.5 2.5C2.39543 2.5 1.5 3.39543 1.5 4.5C1.5 5.60457 2.39543 6.5 3.5 6.5Z" stroke="#67686D" stroke-linecap="round" stroke-linejoin="round"/>
        <path d="M0.5 9.5H13.5" stroke="#67686D" stroke-linecap="round" stroke-linejoin="round"/>
        <path d="M3.5 2.5C3.5 2.5 3.5 0.5 5 0.5" stroke="#67686D" stroke-linecap="round" stroke-linejoin="round"/>
    </g>
    <defs>
        <clipPath id="clip0_1222_38851">
            <rect width="14" height="14" fill="white"/>
        </clipPath>
    </defs>
</svg>
