<svg width="14" height="14" viewBox="0 0 14 14" fill="none" xmlns="http://www.w3.org/2000/svg">
    <path d="M12.8839 6.51118C12.8844 5.50295 12.6259 4.51149 12.1331 3.63191C11.6403 2.75232 10.9297 2.01413 10.0696 1.48815C9.20941 0.962167 8.22852 0.666039 7.221 0.628175C6.21349 0.59031 5.21314 0.811979 4.31593 1.27192C3.41872 1.73186 2.65475 2.41463 2.09731 3.25474C1.53987 4.09485 1.20767 5.06411 1.13256 6.06954C1.05745 7.07497 1.24197 8.08283 1.6684 8.99644C2.09484 9.91004 2.74889 10.6988 3.5678 11.2869V12.395C3.5678 12.6551 3.67112 12.9045 3.85503 13.0884C4.03893 13.2723 4.28836 13.3757 4.54844 13.3757H9.45162C9.71171 13.3757 9.96113 13.2723 10.145 13.0884C10.3289 12.9045 10.4323 12.6551 10.4323 12.395V11.2869C11.1904 10.7424 11.8082 10.0253 12.2344 9.19491C12.6607 8.36451 12.8833 7.4446 12.8839 6.51118Z" stroke="#67686D" stroke-linecap="round" stroke-linejoin="round"/>
    <path d="M6.01941 11.4146V13.3758" stroke="#67686D" stroke-linecap="round" stroke-linejoin="round"/>
    <path d="M7.98059 11.4146V13.3758" stroke="#67686D" stroke-linecap="round" stroke-linejoin="round"/>
    <path d="M4.79302 8.47178C5.47012 8.47178 6.01902 7.92288 6.01902 7.24578C6.01902 6.56867 5.47012 6.01978 4.79302 6.01978C4.11592 6.01978 3.56702 6.56867 3.56702 7.24578C3.56702 7.92288 4.11592 8.47178 4.79302 8.47178Z" stroke="#67686D" stroke-linecap="round" stroke-linejoin="round"/>
    <path d="M9.20696 8.47178C9.88406 8.47178 10.433 7.92288 10.433 7.24578C10.433 6.56867 9.88406 6.01978 9.20696 6.01978C8.52986 6.01978 7.98096 6.56867 7.98096 7.24578C7.98096 7.92288 8.52986 8.47178 9.20696 8.47178Z" stroke="#67686D" stroke-linecap="round" stroke-linejoin="round"/>
</svg>
