<svg width="30" height="30" viewBox="0 0 30 30" fill="none" xmlns="http://www.w3.org/2000/svg">
    <path fill-rule="evenodd" clip-rule="evenodd" d="M15 30C23.2845 30 30 23.2845 30 15C30 6.7155 23.2845 0 15 0C6.7155 0 0 6.7155 0 15C0 23.2845 6.7155 30 15 30ZM12.75 22.4865C12.75 21.186 13.7385 20.25 14.9865 20.25C16.2615 20.25 17.25 21.186 17.25 22.4865C17.25 23.787 16.2615 24.75 14.9865 24.75C13.7385 24.75 12.75 23.787 12.75 22.4865ZM13.758 6C13.6568 6.0001 13.5567 6.02069 13.4636 6.06052C13.3706 6.10035 13.2866 6.15859 13.2166 6.23175C13.1467 6.3049 13.0923 6.39146 13.0567 6.48619C13.0211 6.58093 13.005 6.68189 13.0095 6.783L13.4685 17.283C13.477 17.4761 13.5598 17.6585 13.6995 17.7921C13.8392 17.9257 14.0252 18.0002 14.2185 18H15.783C15.9763 18.0002 16.1623 17.9257 16.302 17.7921C16.4417 17.6585 16.5245 17.4761 16.533 17.283L16.9905 6.783C16.995 6.68177 16.9789 6.58068 16.9432 6.48584C16.9075 6.39101 16.8529 6.30438 16.7828 6.23121C16.7128 6.15803 16.6286 6.09981 16.5353 6.06008C16.4421 6.02034 16.3418 5.9999 16.2405 6H13.758Z" fill="#E32D0D"/>
</svg>
