<svg width="30" height="30" viewBox="0 0 30 30" fill="none" xmlns="http://www.w3.org/2000/svg">
    <path d="M15 30C23.2843 30 30 23.2843 30 15C30 6.71573 23.2843 0 15 0C6.71573 0 0 6.71573 0 15C0 23.2843 6.71573 30 15 30Z" fill="#3A9710"/>
    <path d="M13.4998 20.25C13.3024 20.2512 13.1067 20.2133 12.9239 20.1387C12.7412 20.064 12.575 19.9541 12.4348 19.815L7.93479 15.315C7.79493 15.1752 7.68399 15.0091 7.6083 14.8264C7.53261 14.6437 7.49365 14.4478 7.49365 14.25C7.49365 13.8506 7.65233 13.4675 7.93479 13.185C8.21725 12.9026 8.60034 12.7439 8.99979 12.7439C9.39924 12.7439 9.78233 12.9026 10.0648 13.185L13.4998 16.635L19.9348 10.185C20.2172 9.90258 20.6003 9.7439 20.9998 9.7439C21.3992 9.7439 21.7823 9.90258 22.0648 10.185C22.3472 10.4675 22.5059 10.8506 22.5059 11.25C22.5059 11.6495 22.3472 12.0326 22.0648 12.315L14.5648 19.815C14.4246 19.9541 14.2584 20.064 14.0756 20.1387C13.8929 20.2133 13.6972 20.2512 13.4998 20.25Z" fill="#D6FFD3"/>
</svg>
